<svg width="24" height="24" viewBox="0 0 24 24" fill="none" xmlns="http://www.w3.org/2000/svg">
<path d="M14.8278 7.75699L9.1718 13.414C9.07629 13.5062 9.00011 13.6166 8.9477 13.7386C8.89529 13.8606 8.8677 13.9918 8.86655 14.1246C8.86539 14.2574 8.8907 14.3891 8.94098 14.5119C8.99126 14.6348 9.06551 14.7465 9.1594 14.8404C9.2533 14.9343 9.36495 15.0085 9.48784 15.0588C9.61074 15.1091 9.74242 15.1344 9.8752 15.1332C10.008 15.1321 10.1392 15.1045 10.2612 15.0521C10.3832 14.9997 10.4936 14.9235 10.5858 14.828L16.2428 9.17199C16.8055 8.60934 17.1216 7.84621 17.1216 7.05049C17.1216 6.25478 16.8055 5.49165 16.2428 4.92899C15.6801 4.36634 14.917 4.05024 14.1213 4.05024C13.3256 4.05024 12.5625 4.36634 11.9998 4.92899L6.3428 10.586C5.86887 11.0481 5.49143 11.5998 5.23236 12.2089C4.97328 12.818 4.83774 13.4725 4.8336 14.1345C4.82945 14.7964 4.95678 15.4526 5.2082 16.0649C5.45961 16.6772 5.83012 17.2336 6.29821 17.7016C6.76631 18.1696 7.32268 18.54 7.93505 18.7914C8.54742 19.0427 9.20361 19.1699 9.86553 19.1657C10.5275 19.1615 11.182 19.0258 11.7911 18.7667C12.4002 18.5075 12.9517 18.13 13.4138 17.656L19.0708 12L20.4848 13.414L14.8278 19.071C14.1778 19.721 13.406 20.2367 12.5567 20.5885C11.7074 20.9403 10.7971 21.1214 9.8778 21.1214C8.9585 21.1214 8.0482 20.9403 7.19888 20.5885C6.34955 20.2367 5.57784 19.721 4.9278 19.071C4.27776 18.421 3.76211 17.6492 3.41031 16.7999C3.05851 15.9506 2.87744 15.0403 2.87744 14.121C2.87744 13.2017 3.05851 12.2914 3.41031 11.4421C3.76211 10.5928 4.27776 9.82104 4.9278 9.17099L10.5858 3.51499C11.5288 2.6042 12.7918 2.10023 14.1028 2.11162C15.4138 2.12302 16.6679 2.64886 17.5949 3.5759C18.5219 4.50294 19.0478 5.757 19.0592 7.06799C19.0706 8.37897 18.5666 9.64198 17.6558 10.585L11.9998 16.244C11.7211 16.5226 11.3903 16.7436 11.0263 16.8943C10.6622 17.0451 10.272 17.1226 9.87794 17.1226C9.4839 17.1226 9.09372 17.0449 8.72969 16.8941C8.36566 16.7432 8.0349 16.5222 7.7563 16.2435C7.4777 15.9648 7.25671 15.634 7.10596 15.27C6.95521 14.9059 6.87764 14.5157 6.87769 14.1216C6.87774 13.7276 6.9554 13.3374 7.10623 12.9734C7.25707 12.6094 7.47813 12.2786 7.7568 12L13.4138 6.34299L14.8278 7.75699Z" fill="white"/>
</svg>
