<svg width="50" height="50" viewBox="0 0 50 50" fill="none" xmlns="http://www.w3.org/2000/svg">
<path d="M46.2958 32.85L45.8271 30.5062H40.5896L39.7562 32.8333L35.5583 32.8417C37.5568 28.0357 39.5596 23.2315 41.5667 18.4292C41.9083 17.6146 42.5146 17.2 43.4083 17.2042C44.0917 17.2104 45.2062 17.2104 46.7542 17.2062L50 32.8438L46.2958 32.85ZM41.7687 27.2958H45.1437L43.8833 21.4208L41.7687 27.2958ZM14.7083 17.2021L18.9292 17.2062L12.4042 32.8521L8.13125 32.8479C7.05677 28.7152 5.99565 24.5791 4.94792 20.4396C4.73958 19.6146 4.32708 19.0375 3.53333 18.7646C2.82708 18.5208 1.65 18.1458 0 17.6354V17.2083H6.74375C7.91042 17.2083 8.59167 17.7729 8.81042 18.9312C9.03125 20.0917 9.58542 23.0458 10.4771 27.7937L14.7083 17.2021ZM24.7292 17.2062L21.3917 32.8479L17.375 32.8438L20.7083 17.2021L24.7292 17.2062ZM32.875 16.9167C34.0771 16.9167 35.5917 17.2917 36.4625 17.6354L35.7583 20.8792C34.9708 20.5625 33.675 20.1354 32.5854 20.15C31.0021 20.1771 30.0229 20.8417 30.0229 21.4792C30.0229 22.5167 31.7229 23.0396 33.4729 24.1729C35.4708 25.4646 35.7333 26.625 35.7083 27.8854C35.6812 30.5021 33.4729 33.0833 28.8146 33.0833C26.6896 33.0521 25.9229 32.8729 24.1896 32.2583L24.9229 28.8729C26.6875 29.6125 27.4354 29.8479 28.9437 29.8479C30.325 29.8479 31.5104 29.2896 31.5208 28.3167C31.5292 27.625 31.1042 27.2813 29.5542 26.4271C28.0042 25.5708 25.8292 24.3854 25.8583 22.0062C25.8937 18.9604 28.7792 16.9167 32.8771 16.9167H32.875Z" fill="#F2F2F2"/>
</svg>
